<?xml version="1.0" encoding="UTF-8" standalone="no"?>
<!DOCTYPE svg PUBLIC "-//W3C//DTD SVG 1.1//EN"
 "http://www.w3.org/Graphics/SVG/1.1/DTD/svg11.dtd">
<!-- Generated by graphviz version 2.40.1 (20161225.0304)
 -->
<!-- Title: DFA Pages: 1 -->
<svg width="459pt" height="143pt"
 viewBox="0.00 0.00 459.00 143.00" xmlns="http://www.w3.org/2000/svg" xmlns:xlink="http://www.w3.org/1999/xlink">
<g id="graph0" class="graph" transform="scale(1 1) rotate(0) translate(4 139)">
<title>DFA</title>
<polygon fill="#ffffff" stroke="transparent" points="-4,4 -4,-139 455,-139 455,4 -4,4"/>
<!--   -->
<g id="node1" class="node">
<title> </title>
<text text-anchor="middle" x="27" y="-14.3" font-family="Times,serif" font-size="14.00" fill="#000000"> </text>
</g>
<!-- 0 -->
<g id="node3" class="node">
<title>0</title>
<ellipse fill="none" stroke="#000000" cx="109" cy="-18" rx="18" ry="18"/>
<text text-anchor="middle" x="109" y="-14.3" font-family="Times,serif" font-size="14.00" fill="#000000">0</text>
</g>
<!--  &#45;&gt;0 -->
<g id="edge1" class="edge">
<title> &#45;&gt;0</title>
<path fill="none" stroke="#000000" d="M54.3048,-18C62.6909,-18 71.9407,-18 80.4103,-18"/>
<polygon fill="#000000" stroke="#000000" points="80.5976,-21.5001 90.5976,-18 80.5976,-14.5001 80.5976,-21.5001"/>
</g>
<!-- 4 -->
<g id="node2" class="node">
<title>4</title>
<ellipse fill="none" stroke="#000000" cx="350" cy="-95" rx="18" ry="18"/>
<ellipse fill="none" stroke="#000000" cx="350" cy="-95" rx="22" ry="22"/>
<text text-anchor="middle" x="350" y="-91.3" font-family="Times,serif" font-size="14.00" fill="#000000">4</text>
</g>
<!-- 1 -->
<g id="node4" class="node">
<title>1</title>
<ellipse fill="none" stroke="#000000" cx="188" cy="-78" rx="18" ry="18"/>
<text text-anchor="middle" x="188" y="-74.3" font-family="Times,serif" font-size="14.00" fill="#000000">1</text>
</g>
<!-- 4&#45;&gt;1 -->
<g id="edge10" class="edge">
<title>4&#45;&gt;1</title>
<path fill="none" stroke="#000000" d="M329.8499,-104.1617C323.5588,-106.8598 316.5505,-109.7017 310,-112 284.2499,-121.0346 276.1562,-121.689 249,-119 237.724,-117.8835 233.9904,-119.3467 224,-114 217.5075,-110.5253 211.428,-105.4994 206.1804,-100.3"/>
<polygon fill="#000000" stroke="#000000" points="208.5069,-97.6619 199.136,-92.7185 203.3788,-102.4267 208.5069,-97.6619"/>
<text text-anchor="middle" x="267" y="-123.8" font-family="Times,serif" font-size="14.00" fill="#000000">a</text>
</g>
<!-- 2 -->
<g id="node5" class="node">
<title>2</title>
<ellipse fill="none" stroke="#000000" cx="433" cy="-45" rx="18" ry="18"/>
<text text-anchor="middle" x="433" y="-41.3" font-family="Times,serif" font-size="14.00" fill="#000000">2</text>
</g>
<!-- 4&#45;&gt;2 -->
<g id="edge11" class="edge">
<title>4&#45;&gt;2</title>
<path fill="none" stroke="#000000" d="M369.2505,-83.4033C381.0423,-76.2998 396.2368,-67.1465 408.8337,-59.558"/>
<polygon fill="#000000" stroke="#000000" points="410.7016,-62.5188 417.4614,-54.3606 407.0895,-56.5228 410.7016,-62.5188"/>
<text text-anchor="middle" x="393.5" y="-73.8" font-family="Times,serif" font-size="14.00" fill="#000000">b</text>
</g>
<!-- 0&#45;&gt;1 -->
<g id="edge2" class="edge">
<title>0&#45;&gt;1</title>
<path fill="none" stroke="#000000" d="M123.4898,-29.0049C135.1827,-37.8856 151.8427,-50.5388 165.3031,-60.7618"/>
<polygon fill="#000000" stroke="#000000" points="163.5215,-63.8038 173.602,-67.0648 167.7554,-58.2293 163.5215,-63.8038"/>
<text text-anchor="middle" x="148.5" y="-52.8" font-family="Times,serif" font-size="14.00" fill="#000000">a</text>
</g>
<!-- 0&#45;&gt;2 -->
<g id="edge3" class="edge">
<title>0&#45;&gt;2</title>
<path fill="none" stroke="#000000" d="M126.3668,-12.404C142.2387,-7.79 166.4496,-2 188,-2 188,-2 188,-2 350,-2 372.7303,-2 395.4334,-14.8716 411.335,-26.5302"/>
<polygon fill="#000000" stroke="#000000" points="409.3762,-29.44 419.4265,-32.7929 413.6607,-23.9043 409.3762,-29.44"/>
<text text-anchor="middle" x="267" y="-5.8" font-family="Times,serif" font-size="14.00" fill="#000000">b</text>
</g>
<!-- 1&#45;&gt;1 -->
<g id="edge4" class="edge">
<title>1&#45;&gt;1</title>
<path fill="none" stroke="#000000" d="M181.2664,-95.0373C179.8922,-104.8579 182.1367,-114 188,-114 191.6646,-114 193.9155,-110.4289 194.7529,-105.3529"/>
<polygon fill="#000000" stroke="#000000" points="198.2524,-105.0307 194.7336,-95.0373 191.2524,-105.0439 198.2524,-105.0307"/>
<text text-anchor="middle" x="188" y="-117.8" font-family="Times,serif" font-size="14.00" fill="#000000">a</text>
</g>
<!-- 3 -->
<g id="node6" class="node">
<title>3</title>
<ellipse fill="none" stroke="#000000" cx="267" cy="-92" rx="18" ry="18"/>
<text text-anchor="middle" x="267" y="-88.3" font-family="Times,serif" font-size="14.00" fill="#000000">3</text>
</g>
<!-- 1&#45;&gt;3 -->
<g id="edge5" class="edge">
<title>1&#45;&gt;3</title>
<path fill="none" stroke="#000000" d="M204.0003,-86.8317C210.0744,-89.7176 217.1757,-92.5518 224,-94 228.6491,-94.9866 233.6418,-95.3596 238.5207,-95.363"/>
<polygon fill="#000000" stroke="#000000" points="239.0181,-98.8435 248.8415,-94.8747 238.6872,-91.8513 239.0181,-98.8435"/>
<text text-anchor="middle" x="227.5" y="-98.8" font-family="Times,serif" font-size="14.00" fill="#000000">b</text>
</g>
<!-- 2&#45;&gt;1 -->
<g id="edge6" class="edge">
<title>2&#45;&gt;1</title>
<path fill="none" stroke="#000000" d="M414.9425,-46.6582C381.9342,-49.757 309.6682,-56.8546 249,-65 237.8476,-66.4973 235.0241,-66.7445 224,-69 221.1598,-69.5811 218.2057,-70.236 215.2656,-70.9208"/>
<polygon fill="#000000" stroke="#000000" points="214.3947,-67.5306 205.5088,-73.3004 216.0534,-74.3312 214.3947,-67.5306"/>
<text text-anchor="middle" x="306.5" y="-61.8" font-family="Times,serif" font-size="14.00" fill="#000000">a</text>
</g>
<!-- 2&#45;&gt;2 -->
<g id="edge7" class="edge">
<title>2&#45;&gt;2</title>
<path fill="none" stroke="#000000" d="M426.2664,-62.0373C424.8922,-71.8579 427.1367,-81 433,-81 436.6646,-81 438.9155,-77.4289 439.7529,-72.3529"/>
<polygon fill="#000000" stroke="#000000" points="443.2524,-72.0307 439.7336,-62.0373 436.2524,-72.0439 443.2524,-72.0307"/>
<text text-anchor="middle" x="433" y="-84.8" font-family="Times,serif" font-size="14.00" fill="#000000">b</text>
</g>
<!-- 3&#45;&gt;4 -->
<g id="edge9" class="edge">
<title>3&#45;&gt;4</title>
<path fill="none" stroke="#000000" d="M285.0098,-92.651C294.5483,-92.9957 306.5554,-93.4297 317.6456,-93.8306"/>
<polygon fill="#000000" stroke="#000000" points="317.7671,-97.3371 327.887,-94.2007 318.02,-90.3417 317.7671,-97.3371"/>
<text text-anchor="middle" x="306.5" y="-96.8" font-family="Times,serif" font-size="14.00" fill="#000000">b</text>
</g>
<!-- 3&#45;&gt;1 -->
<g id="edge8" class="edge">
<title>3&#45;&gt;1</title>
<path fill="none" stroke="#000000" d="M251.4151,-82.8008C245.2707,-79.6734 238.0141,-76.5728 231,-75 226.1441,-73.9111 220.9094,-73.5904 215.8205,-73.7122"/>
<polygon fill="#000000" stroke="#000000" points="215.4525,-70.23 205.7472,-74.4794 215.9842,-77.2098 215.4525,-70.23"/>
<text text-anchor="middle" x="227.5" y="-78.8" font-family="Times,serif" font-size="14.00" fill="#000000">a</text>
</g>
</g>
</svg>
