<?xml version="1.0" encoding="UTF-8" standalone="no"?>
<!DOCTYPE svg PUBLIC "-//W3C//DTD SVG 1.1//EN"
 "http://www.w3.org/Graphics/SVG/1.1/DTD/svg11.dtd">
<!-- Generated by graphviz version 2.40.1 (20161225.0304)
 -->
<!-- Title: DFA Pages: 1 -->
<svg width="470pt" height="143pt"
 viewBox="0.00 0.00 470.00 143.00" xmlns="http://www.w3.org/2000/svg" xmlns:xlink="http://www.w3.org/1999/xlink">
<g id="graph0" class="graph" transform="scale(1 1) rotate(0) translate(4 139)">
<title>DFA</title>
<polygon fill="#ffffff" stroke="transparent" points="-4,4 -4,-139 466,-139 466,4 -4,4"/>
<!--   -->
<g id="node1" class="node">
<title> </title>
<text text-anchor="middle" x="27" y="-14.3" font-family="Times,serif" font-size="14.00" fill="#000000"> </text>
</g>
<!-- 0 -->
<g id="node3" class="node">
<title>0</title>
<ellipse fill="none" stroke="#000000" cx="109" cy="-18" rx="18" ry="18"/>
<text text-anchor="middle" x="109" y="-14.3" font-family="Times,serif" font-size="14.00" fill="#000000">0</text>
</g>
<!--  &#45;&gt;0 -->
<g id="edge1" class="edge">
<title> &#45;&gt;0</title>
<path fill="none" stroke="#000000" d="M54.3048,-18C62.6909,-18 71.9407,-18 80.4103,-18"/>
<polygon fill="#000000" stroke="#000000" points="80.5976,-21.5001 90.5976,-18 80.5976,-14.5001 80.5976,-21.5001"/>
</g>
<!-- 4 -->
<g id="node2" class="node">
<title>4</title>
<ellipse fill="none" stroke="#000000" cx="358" cy="-95" rx="18" ry="18"/>
<ellipse fill="none" stroke="#000000" cx="358" cy="-95" rx="22" ry="22"/>
<text text-anchor="middle" x="358" y="-91.3" font-family="Times,serif" font-size="14.00" fill="#000000">4</text>
</g>
<!-- 1 -->
<g id="node4" class="node">
<title>1</title>
<ellipse fill="none" stroke="#000000" cx="190" cy="-78" rx="18" ry="18"/>
<text text-anchor="middle" x="190" y="-74.3" font-family="Times,serif" font-size="14.00" fill="#000000">1</text>
</g>
<!-- 4&#45;&gt;1 -->
<g id="edge10" class="edge">
<title>4&#45;&gt;1</title>
<path fill="none" stroke="#000000" d="M337.8888,-104.275C331.5992,-106.9777 324.582,-109.7937 318,-112 290.8695,-121.094 282.5025,-121.5249 254,-119 241.408,-117.8845 237.2066,-119.8493 226,-114 219.3666,-110.5377 213.1836,-105.4285 207.8785,-100.1402"/>
<polygon fill="#000000" stroke="#000000" points="210.1324,-97.4209 200.7839,-92.4352 204.9828,-102.1625 210.1324,-97.4209"/>
<text text-anchor="middle" x="272" y="-123.8" font-family="Times,serif" font-size="14.00" fill="#000000">a</text>
</g>
<!-- 2 -->
<g id="node5" class="node">
<title>2</title>
<ellipse fill="none" stroke="#000000" cx="444" cy="-45" rx="18" ry="18"/>
<text text-anchor="middle" x="444" y="-41.3" font-family="Times,serif" font-size="14.00" fill="#000000">2</text>
</g>
<!-- 4&#45;&gt;2 -->
<g id="edge11" class="edge">
<title>4&#45;&gt;2</title>
<path fill="none" stroke="#000000" d="M377.0862,-83.9034C389.6306,-76.6101 406.1564,-67.0021 419.646,-59.1593"/>
<polygon fill="#000000" stroke="#000000" points="421.5277,-62.1139 428.4136,-54.0619 418.0093,-56.0623 421.5277,-62.1139"/>
<text text-anchor="middle" x="403" y="-74.8" font-family="Times,serif" font-size="14.00" fill="#000000">b</text>
</g>
<!-- 0&#45;&gt;1 -->
<g id="edge2" class="edge">
<title>0&#45;&gt;1</title>
<path fill="none" stroke="#000000" d="M123.4812,-28.7268C135.6153,-37.7151 153.1532,-50.7061 167.1748,-61.0924"/>
<polygon fill="#000000" stroke="#000000" points="165.2522,-64.0239 175.3711,-67.1638 169.4188,-58.399 165.2522,-64.0239"/>
<text text-anchor="middle" x="149.5" y="-52.8" font-family="Times,serif" font-size="14.00" fill="#000000">a</text>
</g>
<!-- 0&#45;&gt;2 -->
<g id="edge3" class="edge">
<title>0&#45;&gt;2</title>
<path fill="none" stroke="#000000" d="M126.1867,-12.5831C142.4518,-7.9414 167.6386,-2 190,-2 190,-2 190,-2 358,-2 381.5213,-2 405.2039,-15.0271 421.7443,-26.7408"/>
<polygon fill="#000000" stroke="#000000" points="420.0463,-29.841 430.1523,-33.0221 424.2358,-24.2331 420.0463,-29.841"/>
<text text-anchor="middle" x="272" y="-5.8" font-family="Times,serif" font-size="14.00" fill="#000000">b</text>
</g>
<!-- 1&#45;&gt;1 -->
<g id="edge4" class="edge">
<title>1&#45;&gt;1</title>
<path fill="none" stroke="#000000" d="M182.9688,-94.6641C181.4063,-104.625 183.75,-114 190,-114 194.0039,-114 196.4047,-110.1525 197.2023,-104.7682"/>
<polygon fill="#000000" stroke="#000000" points="200.7001,-104.6033 197.0313,-94.6641 193.7011,-104.7219 200.7001,-104.6033"/>
<text text-anchor="middle" x="190" y="-117.8" font-family="Times,serif" font-size="14.00" fill="#000000">a</text>
</g>
<!-- 3 -->
<g id="node6" class="node">
<title>3</title>
<ellipse fill="none" stroke="#000000" cx="272" cy="-92" rx="18" ry="18"/>
<text text-anchor="middle" x="272" y="-88.3" font-family="Times,serif" font-size="14.00" fill="#000000">3</text>
</g>
<!-- 1&#45;&gt;3 -->
<g id="edge5" class="edge">
<title>1&#45;&gt;3</title>
<path fill="none" stroke="#000000" d="M206.0003,-86.8317C212.0744,-89.7176 219.1757,-92.5518 226,-94 231.6692,-95.2031 237.8166,-95.5643 243.7169,-95.464"/>
<polygon fill="#000000" stroke="#000000" points="244.135,-98.9457 253.9134,-94.8673 243.726,-91.9576 244.135,-98.9457"/>
<text text-anchor="middle" x="231" y="-98.8" font-family="Times,serif" font-size="14.00" fill="#000000">b</text>
</g>
<!-- 2&#45;&gt;1 -->
<g id="edge6" class="edge">
<title>2&#45;&gt;1</title>
<path fill="none" stroke="#000000" d="M425.8983,-46.6803C392.0826,-49.8693 317.0345,-57.1826 254,-65 241.5248,-66.5471 238.3363,-66.5835 226,-69 223.155,-69.5573 220.1978,-70.1968 217.2559,-70.8723"/>
<polygon fill="#000000" stroke="#000000" points="216.3892,-67.4809 207.4969,-73.2409 218.0403,-74.2834 216.3892,-67.4809"/>
<text text-anchor="middle" x="313" y="-61.8" font-family="Times,serif" font-size="14.00" fill="#000000">a</text>
</g>
<!-- 2&#45;&gt;2 -->
<g id="edge7" class="edge">
<title>2&#45;&gt;2</title>
<path fill="none" stroke="#000000" d="M436.9688,-61.6641C435.4063,-71.625 437.75,-81 444,-81 448.0039,-81 450.4047,-77.1525 451.2023,-71.7682"/>
<polygon fill="#000000" stroke="#000000" points="454.7001,-71.6033 451.0313,-61.6641 447.7011,-71.7219 454.7001,-71.6033"/>
<text text-anchor="middle" x="444" y="-84.8" font-family="Times,serif" font-size="14.00" fill="#000000">b</text>
</g>
<!-- 3&#45;&gt;4 -->
<g id="edge9" class="edge">
<title>3&#45;&gt;4</title>
<path fill="none" stroke="#000000" d="M290.2384,-92.6362C300.5348,-92.9954 313.7046,-93.4548 325.691,-93.8729"/>
<polygon fill="#000000" stroke="#000000" points="325.702,-97.3754 335.8179,-94.2262 325.9461,-90.3796 325.702,-97.3754"/>
<text text-anchor="middle" x="313" y="-96.8" font-family="Times,serif" font-size="14.00" fill="#000000">b</text>
</g>
<!-- 3&#45;&gt;1 -->
<g id="edge8" class="edge">
<title>3&#45;&gt;1</title>
<path fill="none" stroke="#000000" d="M256.4151,-82.8008C250.2707,-79.6734 243.0141,-76.5728 236,-75 230.3384,-73.7304 224.1941,-73.4206 218.2947,-73.6287"/>
<polygon fill="#000000" stroke="#000000" points="217.7769,-70.1593 208.0974,-74.4672 218.3506,-77.1358 217.7769,-70.1593"/>
<text text-anchor="middle" x="231" y="-78.8" font-family="Times,serif" font-size="14.00" fill="#000000">a</text>
</g>
</g>
</svg>
